
<svg width="198" height="24" viewBox="0 0 198 24" fill="none" xmlns="http://www.w3.org/2000/svg">
<path d="M11.6581 0.000706284C13.9481 0.0327637 15.7786 1.57375 17.788 2.57411C19.8081 3.57976 22.4306 4.03215 23.5139 5.90295C24.5961 7.77184 23.5644 10.0577 23.3494 12.1785C23.1572 14.0743 23.1816 15.9823 22.3163 17.7155C21.4138 19.5234 20.101 21.172 18.3082 22.2767C16.48 23.403 14.3034 23.996 12.1163 24C9.95637 24.0039 7.92791 23.2456 6.03497 22.2992C4.13735 21.3505 2.24732 20.2475 1.16181 18.5233C0.083082 16.81 -0.077606 14.7463 0.0273098 12.7571C0.127834 10.8511 0.86672 9.07906 1.75118 7.34859C2.68282 5.52582 3.61917 3.66192 5.32115 2.39958C7.13505 1.05423 9.3443 -0.031685 11.6581 0.000706284Z" fill="#0093AD"/>
<path d="M14.4 12C14.4 13.3255 13.3255 14.4 12 14.4C10.6745 14.4 9.6 13.3255 9.6 12C9.6 10.6745 10.6745 9.6 12 9.6C13.3255 9.6 14.4 10.6745 14.4 12Z" fill="white"/>
<path d="M46.6103 1.80977C49.2782 3.61852 51.0139 6.56248 51.4934 9.77151C51.9565 12.87 50.8647 15.9071 49.1025 18.4862C47.3517 21.0488 44.9371 23.1541 41.9185 23.7855C38.8517 24.427 35.6973 23.5867 33.089 21.8357C30.4475 20.0623 28.3913 17.4441 27.788 14.2991C27.1822 11.1412 28.0804 7.89992 29.9106 5.26744C31.7151 2.67177 34.4448 0.935674 37.5211 0.298741C40.648 -0.348695 43.96 0.0129699 46.6103 1.80977Z" fill="#00AB0E"/>
<path d="M41.9913 7.2C41.9913 8.52548 40.9168 9.6 39.5913 9.6C38.2658 9.6 37.1913 8.52548 37.1913 7.2C37.1913 5.87452 38.2658 4.8 39.5913 4.8C40.9168 4.8 41.9913 5.87452 41.9913 7.2Z" fill="white"/>
<path d="M41.9913 16.8C41.9913 18.1255 40.9168 19.2 39.5913 19.2C38.2658 19.2 37.1913 18.1255 37.1913 16.8C37.1913 15.4745 38.2658 14.4 39.5913 14.4C40.9168 14.4 41.9913 15.4745 41.9913 16.8Z" fill="white"/>
<path d="M44.3913 14.4C43.0658 14.4 41.9913 13.3255 41.9913 12C41.9913 10.6745 43.0658 9.6 44.3913 9.6C45.7168 9.6 46.7913 10.6745 46.7913 12C46.7913 13.3255 45.7168 14.4 44.3913 14.4Z" fill="white"/>
<path d="M34.7913 14.4C33.4658 14.4 32.3913 13.3255 32.3913 12C32.3913 10.6745 33.4658 9.6 34.7913 9.6C36.1168 9.6 37.1913 10.6745 37.1913 12C37.1913 13.3255 36.1168 14.4 34.7913 14.4Z" fill="white"/>
<path d="M76.7633 4.332V19.56H72.5297V11.1576L69.6569 19.56H66.1145L63.2201 11.0928V19.56H58.9865V4.332H64.1057L67.9289 14.2248L71.6657 4.332H76.7633Z" fill="#1A1B1A"/>
<path d="M83.4069 7.7232V10.2072H88.2669V13.4256H83.4069V16.1688H88.9149V19.56H79.1733V4.332H88.9149V7.7232H83.4069Z" fill="#1A1B1A"/>
<path d="M105.112 19.56H100.878L95.2404 11.0496V19.56H91.0069V4.332H95.2404L100.878 12.9504V4.332H105.112V19.56Z" fill="#1A1B1A"/>
<path d="M118.993 4.332V7.7016H114.932V19.56H110.698V7.7016H106.681V4.332H118.993Z" fill="#1A1B1A"/>
<path d="M127.86 19.7112C126.434 19.7112 125.124 19.38 123.929 18.7176C122.734 18.0408 121.783 17.112 121.078 15.9312C120.386 14.736 120.041 13.3896 120.041 11.892C120.041 10.3944 120.386 9.0552 121.078 7.8744C121.783 6.6792 122.734 5.7504 123.929 5.088C125.124 4.4256 126.434 4.0944 127.86 4.0944C129.3 4.0944 130.61 4.4256 131.791 5.088C132.986 5.7504 133.93 6.6792 134.621 7.8744C135.312 9.0552 135.658 10.3944 135.658 11.892C135.658 13.3896 135.312 14.736 134.621 15.9312C133.93 17.112 132.986 18.0408 131.791 18.7176C130.596 19.38 129.286 19.7112 127.86 19.7112ZM127.86 15.78C128.94 15.78 129.79 15.4272 130.409 14.7216C131.042 14.016 131.359 13.0728 131.359 11.892C131.359 10.6824 131.042 9.732 130.409 9.0408C129.79 8.3352 128.94 7.9824 127.86 7.9824C126.766 7.9824 125.909 8.3352 125.29 9.0408C124.67 9.732 124.361 10.6824 124.361 11.892C124.361 13.0872 124.67 14.0376 125.29 14.7432C125.909 15.4344 126.766 15.78 127.86 15.78Z" fill="#1A1B1A"/>
<path d="M145.272 19.56L142.248 13.944H141.794V19.56H137.561V4.332H144.235C145.459 4.332 146.496 4.548 147.346 4.98C148.195 5.3976 148.836 5.9808 149.268 6.7296C149.7 7.464 149.916 8.292 149.916 9.2136C149.916 10.2504 149.628 11.1648 149.052 11.9568C148.49 12.7344 147.662 13.2888 146.568 13.62L150.002 19.56H145.272ZM141.794 11.0496H143.89C144.466 11.0496 144.898 10.9128 145.186 10.6392C145.474 10.3656 145.618 9.9696 145.618 9.4512C145.618 8.9616 145.466 8.58 145.164 8.3064C144.876 8.0184 144.451 7.8744 143.89 7.8744H141.794V11.0496Z" fill="#1A1B1A"/>
<path d="M157.328 19.7112C156.276 19.7112 155.326 19.5312 154.476 19.1712C153.641 18.8112 152.979 18.2928 152.489 17.616C152 16.9392 151.748 16.14 151.733 15.2184H154.973C155.016 15.8376 155.232 16.3272 155.621 16.6872C156.024 17.0472 156.572 17.2272 157.263 17.2272C157.968 17.2272 158.523 17.0616 158.926 16.7304C159.329 16.3848 159.531 15.9384 159.531 15.3912C159.531 14.9448 159.394 14.5776 159.12 14.2896C158.847 14.0016 158.501 13.7784 158.084 13.62C157.68 13.4472 157.119 13.26 156.399 13.0584C155.42 12.7704 154.62 12.4896 154.001 12.216C153.396 11.928 152.871 11.5032 152.424 10.9416C151.992 10.3656 151.776 9.6024 151.776 8.652C151.776 7.7592 152 6.9816 152.446 6.3192C152.892 5.6568 153.519 5.1528 154.325 4.8072C155.132 4.4472 156.053 4.2672 157.09 4.2672C158.645 4.2672 159.905 4.6488 160.87 5.412C161.849 6.1608 162.389 7.212 162.49 8.5656H159.164C159.135 8.0472 158.912 7.6224 158.494 7.2912C158.091 6.9456 157.551 6.7728 156.874 6.7728C156.284 6.7728 155.808 6.924 155.448 7.2264C155.103 7.5288 154.93 7.968 154.93 8.544C154.93 8.9472 155.06 9.2856 155.319 9.5592C155.592 9.8184 155.924 10.0344 156.312 10.2072C156.716 10.3656 157.277 10.5528 157.997 10.7688C158.976 11.0568 159.776 11.3448 160.395 11.6328C161.014 11.9208 161.547 12.3528 161.993 12.9288C162.44 13.5048 162.663 14.2608 162.663 15.1968C162.663 16.0032 162.454 16.752 162.036 17.4432C161.619 18.1344 161.007 18.6888 160.2 19.1064C159.394 19.5096 158.436 19.7112 157.328 19.7112Z" fill="#1A1B1A"/>
<path d="M177.791 4.4832V19.56H174.767V13.1448H168.309V19.56H165.285V4.4832H168.309V10.6824H174.767V4.4832H177.791Z" fill="#1A1B1A"/>
<path d="M183.791 4.4832V19.56H180.767V4.4832H183.791Z" fill="#1A1B1A"/>
<path d="M197.773 9.1488C197.773 9.9552 197.579 10.7112 197.19 11.4168C196.816 12.1224 196.218 12.6912 195.397 13.1232C194.591 13.5552 193.569 13.7712 192.33 13.7712H189.803V19.56H186.779V4.4832H192.33C193.497 4.4832 194.49 4.6848 195.311 5.088C196.132 5.4912 196.744 6.0456 197.147 6.7512C197.565 7.4568 197.773 8.256 197.773 9.1488ZM192.201 11.3304C193.036 11.3304 193.655 11.1432 194.058 10.7688C194.461 10.38 194.663 9.84 194.663 9.1488C194.663 7.68 193.842 6.9456 192.201 6.9456H189.803V11.3304H192.201Z" fill="#1A1B1A"/>
</svg>
