<svg width="25" height="25" viewBox="0 0 25 25" fill="none" xmlns="http://www.w3.org/2000/svg">
<path d="M22.2429 12.4577L13.2429 2.45767C12.8639 2.03567 12.1359 2.03567 11.7569 2.45767L2.75693 12.4577C2.49193 12.7507 2.42593 13.1727 2.58693 13.5337C2.74693 13.8947 3.10493 14.1267 3.49993 14.1267H5.49993V21.1267C5.49993 21.6787 5.94693 22.1267 6.49993 22.1267H9.49993C10.0529 22.1267 10.4999 21.6787 10.4999 21.1267V17.1267H14.4999V21.1267C14.4999 21.6787 14.9469 22.1267 15.4999 22.1267H18.4999C19.0529 22.1267 19.4999 21.6787 19.4999 21.1267V14.1267H21.4999C21.8949 14.1267 22.2529 13.8947 22.4129 13.5337C22.5739 13.1727 22.5079 12.7517 22.2429 12.4577Z" fill="white"/>
</svg>
