<svg width="20" height="20" viewBox="0 0 20 20" fill="none" xmlns="http://www.w3.org/2000/svg">
<path fill-rule="evenodd" clip-rule="evenodd" d="M10.0217 1.66675C5.43082 1.66675 1.70999 5.38758 1.70999 9.97841C1.70999 13.6501 4.09082 16.7659 7.39416 17.8659C7.80999 17.9409 7.95999 17.6851 7.95999 17.4651C7.95999 17.2676 7.95332 16.7442 7.95082 16.0517C5.63832 16.5534 5.14999 14.9367 5.14999 14.9367C4.77332 13.9767 4.22749 13.7209 4.22749 13.7209C3.47332 13.2051 4.28499 13.2167 4.28499 13.2167C5.11999 13.2751 5.55749 14.0734 5.55749 14.0734C6.29916 15.3434 7.50416 14.9767 7.97582 14.7642C8.05166 14.2267 8.26832 13.8601 8.50499 13.6526C6.65999 13.4434 4.71999 12.7301 4.71999 9.54425C4.71999 8.63841 5.04416 7.89508 5.57332 7.31508C5.48916 7.10425 5.20166 6.25841 5.65582 5.11508C5.65582 5.11508 6.35332 4.89091 7.94082 5.96591C8.60582 5.78175 9.31499 5.68925 10.0208 5.68591C10.7283 5.68925 11.4383 5.78175 12.1008 5.96591C13.6892 4.89008 14.3858 5.11508 14.3858 5.11508C14.84 6.25841 14.555 7.10425 14.4683 7.31508C15.0017 7.89508 15.3217 8.63758 15.3217 9.54425C15.3217 12.7384 13.38 13.4401 11.5283 13.6459C11.8242 13.9026 12.0908 14.4092 12.0908 15.1842C12.0908 16.2959 12.0808 17.1926 12.0808 17.4651C12.0808 17.6876 12.2292 17.9459 12.6533 17.8642C15.955 16.7626 18.3333 13.6492 18.3333 9.97841C18.3333 5.38758 14.6125 1.66675 10.0217 1.66675Z" fill="white"/>
</svg>
