<svg width="20" height="20" viewBox="0 0 20 20" fill="none" xmlns="http://www.w3.org/2000/svg">
<path d="M17.4558 6.9208C17.4467 6.28996 17.33 5.66413 17.1067 5.07413C16.7158 4.06663 15.92 3.26996 14.9125 2.87996C14.33 2.6608 13.7142 2.5433 13.0908 2.52996C12.2892 2.49413 12.035 2.48413 10 2.48413C7.965 2.48413 7.70416 2.48413 6.90833 2.52996C6.28583 2.5433 5.67 2.6608 5.0875 2.87996C4.08 3.26996 3.28333 4.06663 2.89333 5.07413C2.67416 5.65663 2.55583 6.27246 2.54416 6.89496C2.50833 7.69746 2.4975 7.95163 2.4975 9.98663C2.4975 12.0216 2.4975 12.2816 2.54416 13.0783C2.55666 13.7016 2.67416 14.3166 2.89333 14.9008C3.28416 15.9075 4.08 16.7041 5.08833 17.0941C5.66833 17.3208 6.28416 17.4491 6.90916 17.4691C7.71166 17.505 7.96583 17.5158 10.0008 17.5158C12.0358 17.5158 12.2967 17.5158 13.0925 17.4691C13.715 17.4566 14.3308 17.3391 14.9142 17.12C15.9217 16.7291 16.7175 15.9325 17.1083 14.9258C17.3275 14.3425 17.445 13.7275 17.4575 13.1033C17.4933 12.3016 17.5042 12.0475 17.5042 10.0116C17.5025 7.97663 17.5025 7.7183 17.4558 6.9208ZM9.995 13.835C7.86666 13.835 6.1425 12.1108 6.1425 9.98246C6.1425 7.85413 7.86666 6.12996 9.995 6.12996C12.1217 6.12996 13.8475 7.85413 13.8475 9.98246C13.8475 12.1108 12.1217 13.835 9.995 13.835ZM14.0008 6.8858C13.5033 6.8858 13.1025 6.48413 13.1025 5.98746C13.1025 5.4908 13.5033 5.08913 14.0008 5.08913C14.4967 5.08913 14.8983 5.4908 14.8983 5.98746C14.8983 6.48413 14.4967 6.8858 14.0008 6.8858Z" fill="white"/>
<path d="M9.99499 12.485C11.3771 12.485 12.4975 11.3646 12.4975 9.98248C12.4975 8.60039 11.3771 7.47998 9.99499 7.47998C8.6129 7.47998 7.49249 8.60039 7.49249 9.98248C7.49249 11.3646 8.6129 12.485 9.99499 12.485Z" fill="white"/>
</svg>
